<?xml version="1.0" encoding="utf-8"?>
<!-- Generator: Adobe Illustrator 19.2.0, SVG Export Plug-In . SVG Version: 6.00 Build 0)  -->
<svg version="1.1" id="Square" xmlns="http://www.w3.org/2000/svg" xmlns:xlink="http://www.w3.org/1999/xlink" x="0px" y="0px"
	 viewBox="0 0 141.9 141.9" style="enable-background:new 0 0 141.9 141.9;" xml:space="preserve">
<style type="text/css">
	.st0{fill:#FFFFFF;stroke:#F3A623;stroke-width:4;stroke-miterlimit:10;}
	.st1{fill:#F3A623;}
</style>
<title>Github Inverted Yellow</title>
<rect x="2" y="2" class="st0" width="137.9" height="137.9"/>
<g>
	<path class="st1" d="M57.9,125.5l-0.2-19.4c0,0-13.3,6.8-20.6-3.5c-1.7-2.4-2.5-6.5-5.9-10.4c-2.1-2.5-4.3-3.3-4.7-5.2
		c-0.2-1.1,0.1-1.5,1-2.1c2-1.4,6.4,1.8,8,3c7,5.1,6.2,9.7,10.4,11.1c5.6,1.9,11.6-2.8,11.6-2.8c-0.2-3.3,1.3-6.4,3.9-8.3
		c-6.2,0.1-12.3-1.6-17.6-4.8c-4.9-3.1-8.9-7.7-11.3-13c-6.2-20.7,4.5-32,4.5-32c-0.6-2.1-0.9-4.2-1-6.3c-0.2-5,1.2-9.9,2.9-11.5
		c3,0.3,6,1,8.8,2.3c5.3,2.4,8.8,4.4,8.8,4.4s11.7-1.8,17.1-1.6c5.5,0.2,11,0.6,16.4,1.4c2.1-1.3,4.3-2.4,6.5-3.5
		c3.6-1.9,7.6-2.8,11.6-2.5c1.8,5.5,2.1,11.3,0.7,16.9c8.9,12.5,8.8,28.5,0.5,39.1C100.9,87.7,87.2,88,85.3,88
		c3,2.2,3.8,6.9,3.9,8.6c0.4,6.3,0.9,29,0.9,29L57.9,125.5L57.9,125.5z"/>
</g>
</svg>
