<svg id="Square" xmlns="http://www.w3.org/2000/svg" viewBox="0 0 141.94 141.94"><defs><style>.cls-1,.cls-2{fill:#fff;}.cls-1,.cls-2,.cls-4{stroke:#f3a623;}.cls-1,.cls-2,.cls-3,.cls-4{stroke-miterlimit:10;}.cls-1{stroke-width:4px;}.cls-2,.cls-4{stroke-width:5px;}.cls-3{fill:#f1a623;stroke:#184848;stroke-width:9px;opacity:0.5;}.cls-4,.cls-5{fill:#f3a623;}</style></defs><title>Envelope Inverted Yellow</title><rect class="cls-1" x="2" y="2" width="137.94" height="137.94"/><rect class="cls-2" x="25.26" y="37.15" width="91.5" height="68.25" rx="7.4" ry="7.4"/><path class="cls-2" d="M112.23,39.67L80.33,77.05a13.46,13.46,0,0,1-19,0L28.51,38.78" transform="translate(0.11 0.11)"/><path class="cls-3" d="M108.78,36.71" transform="translate(0.11 0.11)"/><line class="cls-4" x1="25" y1="103.03" x2="57.14" y2="74.66"/><line class="cls-4" x1="116.42" y1="102.37" x2="84.28" y2="75"/><polygon class="cls-5" points="111.47 40.8 93.16 62.25 82.81 74.38 92.49 81.99 102.76 90.73 116.42 102.37 116.76 81.11 116.76 61.11 116.76 44.54 111.47 40.8"/><polygon class="cls-5" points="30.56 37.8 48.86 61.25 59.21 73.38 49.53 80.99 39.27 89.73 25.6 101.37 25.26 80.11 25.26 60.11 25.26 43.54 30.56 37.8"/></svg>