<svg id="Square" xmlns="http://www.w3.org/2000/svg" viewBox="0 0 141.73 141.73"><defs><style>.cls-1,.cls-2{fill:#4a4a4a;}.cls-2{stroke:#fff;stroke-width:5px;}.cls-2,.cls-3{stroke-miterlimit:10;}.cls-3{fill:#f1a623;stroke:#184848;stroke-width:9px;opacity:0.5;}.cls-4{fill:#fff;}</style></defs><title>Envelope Grey</title><rect class="cls-1" width="141.73" height="141.73"/><rect class="cls-2" x="25.15" y="37.04" width="91.5" height="68.25" rx="7.4" ry="7.4"/><path class="cls-2" d="M112.23,39.67L80.33,77.05a13.46,13.46,0,0,1-19,0L28.51,38.78"/><path class="cls-3" d="M108.78,36.71"/><line class="cls-2" x1="24.89" y1="102.93" x2="57.03" y2="74.55"/><line class="cls-2" x1="116.31" y1="102.26" x2="84.18" y2="74.89"/><polygon class="cls-4" points="111.36 40.69 93.05 62.14 82.71 74.27 92.39 81.88 102.65 90.63 116.31 102.27 116.66 81 116.66 61 116.66 44.44 111.36 40.69"/><polygon class="cls-4" points="30.45 37.69 48.76 61.14 59.1 73.27 49.42 80.88 39.16 89.63 25.5 101.27 25.15 80 25.15 60 25.15 43.44 30.45 37.69"/></svg>